<mxfile host="app.diagrams.net" agent="Mozilla/5.0 (Windows NT 10.0; Win64; x64) AppleWebKit/537.36 (KHTML, like Gecko) Chrome/126.0.0.0 Safari/537.36 Edg/126.0.0.0" version="24.7.17">
  <diagram name="第 1 页" id="qGDIiJnS9HqsqX57jEbQ">
    <mxGraphModel dx="1213" dy="772" grid="1" gridSize="10" guides="1" tooltips="1" connect="1" arrows="1" fold="1" page="1" pageScale="1" pageWidth="827" pageHeight="1169" math="0" shadow="0">
      <root>
        <mxCell id="0" />
        <mxCell id="1" parent="0" />
        <mxCell id="4ewsNxRngVzR7vFujOuW-1" value="&lt;font style=&quot;font-size: 14px;&quot;&gt;市民&lt;/font&gt;" style="shape=umlActor;verticalLabelPosition=bottom;verticalAlign=top;html=1;" parent="1" vertex="1">
          <mxGeometry x="140" y="160" width="30" height="60" as="geometry" />
        </mxCell>
        <mxCell id="4ewsNxRngVzR7vFujOuW-2" value="&lt;font style=&quot;font-size: 14px;&quot;&gt;市民&lt;/font&gt;" style="shape=umlActor;verticalLabelPosition=bottom;verticalAlign=top;html=1;fillColor=#dae8fc;strokeColor=#6c8ebf;" parent="1" vertex="1">
          <mxGeometry x="140" y="160" width="30" height="60" as="geometry" />
        </mxCell>
        <mxCell id="4ewsNxRngVzR7vFujOuW-3" value="&lt;font style=&quot;font-size: 14px;&quot;&gt;公共工程部员工&lt;/font&gt;" style="shape=umlActor;verticalLabelPosition=bottom;verticalAlign=top;html=1;fillColor=#dae8fc;strokeColor=#6c8ebf;" parent="1" vertex="1">
          <mxGeometry x="140" y="320" width="30" height="60" as="geometry" />
        </mxCell>
        <mxCell id="4ewsNxRngVzR7vFujOuW-4" value="Use Case" style="ellipse;whiteSpace=wrap;html=1;" parent="1" vertex="1">
          <mxGeometry x="385" y="120" width="140" height="70" as="geometry" />
        </mxCell>
        <mxCell id="4ewsNxRngVzR7vFujOuW-5" value="" style="html=1;whiteSpace=wrap;fillColor=#b1ddf0;strokeColor=#10739e;" parent="1" vertex="1">
          <mxGeometry x="295" y="90" width="290" height="440" as="geometry" />
        </mxCell>
        <mxCell id="4ewsNxRngVzR7vFujOuW-6" value="上报坑洼信息" style="ellipse;whiteSpace=wrap;html=1;fillColor=#b1ddf0;strokeColor=#10739e;" parent="1" vertex="1">
          <mxGeometry x="365" y="110" width="140" height="70" as="geometry" />
        </mxCell>
        <mxCell id="4ewsNxRngVzR7vFujOuW-7" value="记录坑洼信息" style="ellipse;whiteSpace=wrap;html=1;fillColor=#b1ddf0;strokeColor=#10739e;" parent="1" vertex="1">
          <mxGeometry x="365" y="190" width="140" height="70" as="geometry" />
        </mxCell>
        <mxCell id="4ewsNxRngVzR7vFujOuW-8" style="rounded=0;orthogonalLoop=1;jettySize=auto;html=1;" parent="1" source="4ewsNxRngVzR7vFujOuW-9" target="4ewsNxRngVzR7vFujOuW-17" edge="1">
          <mxGeometry relative="1" as="geometry">
            <mxPoint x="660" y="330" as="targetPoint" />
          </mxGeometry>
        </mxCell>
        <mxCell id="4ewsNxRngVzR7vFujOuW-9" value="发布工作订单" style="ellipse;whiteSpace=wrap;html=1;fillColor=#b1ddf0;strokeColor=#10739e;" parent="1" vertex="1">
          <mxGeometry x="365" y="270" width="140" height="70" as="geometry" />
        </mxCell>
        <mxCell id="4ewsNxRngVzR7vFujOuW-10" value="修复坑洼" style="ellipse;whiteSpace=wrap;html=1;fillColor=#b1ddf0;strokeColor=#10739e;" parent="1" vertex="1">
          <mxGeometry x="365" y="350" width="140" height="70" as="geometry" />
        </mxCell>
        <mxCell id="4ewsNxRngVzR7vFujOuW-11" value="生成损失文件" style="ellipse;whiteSpace=wrap;html=1;fillColor=#b1ddf0;strokeColor=#10739e;" parent="1" vertex="1">
          <mxGeometry x="365" y="430" width="140" height="70" as="geometry" />
        </mxCell>
        <mxCell id="4ewsNxRngVzR7vFujOuW-12" style="rounded=0;orthogonalLoop=1;jettySize=auto;html=1;entryX=0;entryY=0.5;entryDx=0;entryDy=0;" parent="1" source="4ewsNxRngVzR7vFujOuW-2" target="4ewsNxRngVzR7vFujOuW-6" edge="1">
          <mxGeometry relative="1" as="geometry" />
        </mxCell>
        <mxCell id="4ewsNxRngVzR7vFujOuW-13" value="&lt;font style=&quot;font-size: 14px;&quot;&gt;PHTRS&lt;/font&gt;" style="text;align=center;fontStyle=1;verticalAlign=middle;spacingLeft=3;spacingRight=3;strokeColor=none;rotatable=0;points=[[0,0.5],[1,0.5]];portConstraint=eastwest;html=1;strokeWidth=3;" parent="1" vertex="1">
          <mxGeometry x="280" y="90" width="80" height="26" as="geometry" />
        </mxCell>
        <mxCell id="4ewsNxRngVzR7vFujOuW-14" style="rounded=0;orthogonalLoop=1;jettySize=auto;html=1;entryX=0;entryY=0.5;entryDx=0;entryDy=0;" parent="1" source="4ewsNxRngVzR7vFujOuW-15" target="4ewsNxRngVzR7vFujOuW-9" edge="1">
          <mxGeometry relative="1" as="geometry" />
        </mxCell>
        <mxCell id="4ewsNxRngVzR7vFujOuW-15" value="&lt;font style=&quot;font-size: 14px;&quot;&gt;公共工程部员工&lt;/font&gt;" style="shape=umlActor;verticalLabelPosition=bottom;verticalAlign=top;html=1;fillColor=#dae8fc;strokeColor=#6c8ebf;" parent="1" vertex="1">
          <mxGeometry x="140" y="320" width="30" height="60" as="geometry" />
        </mxCell>
        <mxCell id="4ewsNxRngVzR7vFujOuW-16" style="rounded=0;orthogonalLoop=1;jettySize=auto;html=1;" parent="1" source="4ewsNxRngVzR7vFujOuW-17" target="4ewsNxRngVzR7vFujOuW-10" edge="1">
          <mxGeometry relative="1" as="geometry" />
        </mxCell>
        <mxCell id="4ewsNxRngVzR7vFujOuW-17" value="&lt;span style=&quot;font-size: 14px;&quot;&gt;维修人员&lt;/span&gt;" style="shape=umlActor;verticalLabelPosition=bottom;verticalAlign=top;html=1;fillColor=#dae8fc;strokeColor=#6c8ebf;" parent="1" vertex="1">
          <mxGeometry x="670" y="310" width="30" height="60" as="geometry" />
        </mxCell>
        <mxCell id="4ewsNxRngVzR7vFujOuW-18" style="rounded=0;orthogonalLoop=1;jettySize=auto;html=1;entryX=-0.001;entryY=0.623;entryDx=0;entryDy=0;entryPerimeter=0;" parent="1" source="4ewsNxRngVzR7vFujOuW-15" target="4ewsNxRngVzR7vFujOuW-7" edge="1">
          <mxGeometry relative="1" as="geometry">
            <mxPoint x="170" y="340" as="sourcePoint" />
          </mxGeometry>
        </mxCell>
        <mxCell id="4ewsNxRngVzR7vFujOuW-19" style="rounded=0;orthogonalLoop=1;jettySize=auto;html=1;entryX=0;entryY=0.5;entryDx=0;entryDy=0;" parent="1" source="4ewsNxRngVzR7vFujOuW-15" target="4ewsNxRngVzR7vFujOuW-10" edge="1">
          <mxGeometry relative="1" as="geometry">
            <mxPoint x="180" y="357" as="sourcePoint" />
            <mxPoint x="375" y="315" as="targetPoint" />
          </mxGeometry>
        </mxCell>
        <mxCell id="4ewsNxRngVzR7vFujOuW-20" style="rounded=0;orthogonalLoop=1;jettySize=auto;html=1;entryX=0.032;entryY=0.354;entryDx=0;entryDy=0;entryPerimeter=0;" parent="1" source="4ewsNxRngVzR7vFujOuW-15" target="4ewsNxRngVzR7vFujOuW-11" edge="1">
          <mxGeometry relative="1" as="geometry">
            <mxPoint x="190" y="367" as="sourcePoint" />
            <mxPoint x="385" y="325" as="targetPoint" />
          </mxGeometry>
        </mxCell>
      </root>
    </mxGraphModel>
  </diagram>
</mxfile>
